<svg version="1.1" viewBox="0.0 0.0 960.0 540.0" fill="none" stroke="none" stroke-linecap="square" stroke-miterlimit="10" xmlns:xlink="http://www.w3.org/1999/xlink" xmlns="http://www.w3.org/2000/svg"><clipPath id="g20f57284c94_0_34.0"><path d="m0 0l960.0 0l0 540.0l-960.0 0l0 -540.0z" clip-rule="nonzero"/></clipPath><g clip-path="url(#g20f57284c94_0_34.0)"><path fill="#fff2cc" d="m0 0l960.0 0l0 540.0l-960.0 0z" fill-rule="evenodd"/><path fill="#0098d2" d="m53.492992 222.67717l253.49605 0l47.322845 47.32283l-47.322845 47.322845l-253.49605 0l47.322834 -47.322845z" fill-rule="evenodd"/><path stroke="#0098d2" stroke-width="1.0" stroke-linejoin="round" stroke-linecap="butt" d="m53.492992 222.67717l253.49605 0l47.322845 47.32283l-47.322845 47.322845l-253.49605 0l47.322834 -47.322845z" fill-rule="evenodd"/><path fill="#ff9200" d="m331.71024 222.67717l253.49606 0l47.322815 47.32283l-47.322815 47.322845l-253.49606 0l47.322815 -47.322845z" fill-rule="evenodd"/><path stroke="#ff9200" stroke-width="1.0" stroke-linejoin="round" stroke-linecap="butt" d="m331.71024 222.67717l253.49606 0l47.322815 47.32283l-47.322815 47.322845l-253.49606 0l47.322815 -47.322845z" fill-rule="evenodd"/><path fill="#ff5a49" d="m605.6881 222.67717l253.49603 0l47.322876 47.32283l-47.322876 47.322845l-253.49603 0l47.322815 -47.322845z" fill-rule="evenodd"/><path stroke="#ff5a49" stroke-width="1.0" stroke-linejoin="round" stroke-linecap="butt" d="m605.6881 222.67717l253.49603 0l47.322876 47.32283l-47.322876 47.322845l-253.49603 0l47.322815 -47.322845z" fill-rule="evenodd"/><path fill="#000000" fill-opacity="0.0" d="m117.456696 240.91339l184.28345 0l0 58.173218l-184.28345 0z" fill-rule="evenodd"/><path fill="#fffbdb" d="m151.3328 281.52l0.03125 -3.234375l4.8125 0q2.09375 0 3.5 -0.90625q1.40625 -0.90625 2.125 -2.59375q0.71875 -1.703125 0.71875 -4.0625l0 -1.1875q0 -2.421875 -0.71875 -4.09375q-0.703125 -1.671875 -2.09375 -2.546875q-1.390625 -0.875 -3.390625 -0.875l-5.078125 0l0 -3.25l5.078125 0q3.046875 0 5.34375 1.34375q2.3125 1.34375 3.609375 3.765625q1.296875 2.421875 1.296875 5.6875l0 1.15625q0 3.28125 -1.296875 5.703125q-1.296875 2.421875 -3.640625 3.765625q-2.328125 1.328125 -5.453125 1.328125l-4.84375 0zm2.25 0l-4.03125 0l0 -22.75l4.03125 0l0 22.75zm20.625 0l-3.875 0l0 -16.90625l3.875 0l0 16.90625zm-4.125 -21.328125q0 -0.890625 0.578125 -1.46875q0.578125 -0.59375 1.609375 -0.59375q1.03125 0 1.625 0.59375q0.59375 0.578125 0.59375 1.46875q0 0.875 -0.59375 1.46875q-0.59375 0.578125 -1.625 0.578125q-1.03125 0 -1.609375 -0.578125q-0.578125 -0.59375 -0.578125 -1.46875zm17.640625 16.71875q0 -0.53125 -0.28125 -0.96875q-0.265625 -0.4375 -1.046875 -0.8125q-0.78125 -0.375 -2.296875 -0.6875q-1.796875 -0.375 -3.171875 -1.0q-1.359375 -0.625 -2.125 -1.609375q-0.75 -0.984375 -0.75 -2.40625q0 -1.375 0.78125 -2.53125q0.796875 -1.171875 2.265625 -1.875q1.484375 -0.71875 3.5 -0.71875q2.125 0 3.65625 0.71875q1.53125 0.703125 2.34375 1.921875q0.828125 1.203125 0.828125 2.734375l-3.875 0q0 -1.0 -0.75 -1.75q-0.734375 -0.765625 -2.21875 -0.765625q-0.921875 0 -1.546875 0.296875q-0.609375 0.296875 -0.921875 0.765625q-0.296875 0.46875 -0.296875 1.03125q0 0.546875 0.296875 0.953125q0.3125 0.40625 1.046875 0.71875q0.75 0.3125 2.09375 0.59375q1.9375 0.40625 3.34375 1.03125q1.40625 0.609375 2.15625 1.625q0.765625 1.0 0.765625 2.546875q0 1.484375 -0.859375 2.640625q-0.84375 1.15625 -2.390625 1.8125q-1.53125 0.65625 -3.625 0.65625q-2.328125 0 -3.921875 -0.828125q-1.59375 -0.828125 -2.421875 -2.109375q-0.8125 -1.296875 -0.8125 -2.6875l3.734375 0q0.0625 1.0 0.5625 1.609375q0.515625 0.609375 1.28125 0.890625q0.78125 0.265625 1.625 0.265625q1.0 0 1.65625 -0.265625q0.671875 -0.265625 1.015625 -0.71875q0.359375 -0.46875 0.359375 -1.078125zm13.984375 1.8125q0.90625 0 1.640625 -0.359375q0.734375 -0.375 1.171875 -1.015625q0.4375 -0.640625 0.484375 -1.46875l3.65625 0q-0.046875 1.671875 -0.984375 3.015625q-0.9375 1.34375 -2.484375 2.140625q-1.546875 0.796875 -3.453125 0.796875q-2.578125 0 -4.296875 -1.140625q-1.703125 -1.15625 -2.546875 -3.078125q-0.84375 -1.9375 -0.84375 -4.28125l0 -0.53125q0 -2.34375 0.84375 -4.265625q0.84375 -1.9375 2.546875 -3.078125q1.71875 -1.15625 4.296875 -1.15625q2.046875 0 3.578125 0.8125q1.546875 0.796875 2.421875 2.234375q0.875 1.4375 0.921875 3.359375l-3.65625 0q-0.046875 -0.90625 -0.453125 -1.65625q-0.390625 -0.75 -1.125 -1.1875q-0.71875 -0.453125 -1.734375 -0.453125q-1.5 0 -2.328125 0.78125q-0.8125 0.78125 -1.125 2.015625q-0.3125 1.234375 -0.3125 2.59375l0 0.53125q0 1.375 0.296875 2.609375q0.3125 1.234375 1.140625 2.015625q0.828125 0.765625 2.34375 0.765625zm9.078125 -5.8125q0 -2.46875 0.9375 -4.40625q0.9375 -1.9375 2.6875 -3.0625q1.765625 -1.140625 4.234375 -1.140625q2.5 0 4.265625 1.140625q1.765625 1.125 2.6875 3.0625q0.9375 1.9375 0.9375 4.40625l0 0.328125q0 2.453125 -0.9375 4.40625q-0.921875 1.9375 -2.6875 3.0625q-1.75 1.125 -4.234375 1.125q-2.484375 0 -4.25 -1.125q-1.765625 -1.125 -2.703125 -3.0625q-0.9375 -1.953125 -0.9375 -4.40625l0 -0.328125zm3.875 0.328125q0 1.5 0.421875 2.75q0.421875 1.234375 1.296875 1.984375q0.890625 0.75 2.296875 0.75q1.390625 0 2.265625 -0.75q0.890625 -0.75 1.296875 -1.984375q0.421875 -1.25 0.421875 -2.75l0 -0.328125q0 -1.484375 -0.421875 -2.734375q-0.40625 -1.25 -1.296875 -2.0q-0.890625 -0.765625 -2.296875 -0.765625q-1.390625 0 -2.28125 0.765625q-0.875 0.75 -1.296875 2.0q-0.40625 1.25 -0.40625 2.734375l0 0.328125zm24.34375 -8.625l4.015625 0l-5.84375 16.90625l-2.5 0l0.25 -3.0625l4.078125 -13.84375zm-2.984375 13.890625l0.1875 3.015625l-2.484375 0l-5.890625 -16.90625l4.03125 0l4.15625 13.890625zm16.796875 3.328125q-2.515625 0 -4.34375 -1.078125q-1.828125 -1.09375 -2.8125 -2.9375q-0.984375 -1.859375 -0.984375 -4.15625l0 -0.640625q0 -2.640625 1.0 -4.59375q1.0 -1.96875 2.734375 -3.046875q1.75 -1.078125 3.953125 -1.078125q2.4375 0 4.046875 1.0625q1.609375 1.046875 2.40625 2.921875q0.796875 1.859375 0.796875 4.3125l0 1.671875l-13.078125 0l0 -2.796875l9.25 0l0 -0.296875q-0.03125 -0.984375 -0.375 -1.84375q-0.34375 -0.859375 -1.09375 -1.390625q-0.734375 -0.53125 -1.96875 -0.53125q-1.234375 0 -2.078125 0.703125q-0.84375 0.6875 -1.28125 1.953125q-0.4375 1.25 -0.4375 2.953125l0 0.640625q0 1.4375 0.53125 2.578125q0.53125 1.140625 1.546875 1.8125q1.015625 0.65625 2.421875 0.65625q1.359375 0 2.40625 -0.53125q1.0625 -0.53125 1.828125 -1.53125l2.03125 2.03125q-0.796875 1.203125 -2.40625 2.1875q-1.59375 0.96875 -4.09375 0.96875zm13.5625 -0.3125l-3.875 0l0 -16.90625l3.6875 0l0.1875 3.3125l0 13.59375zm5.09375 -13.34375q-0.359375 -0.0625 -0.765625 -0.09375q-0.390625 -0.03125 -0.78125 -0.03125q-1.28125 0 -2.140625 0.46875q-0.84375 0.453125 -1.28125 1.3125q-0.4375 0.84375 -0.515625 2.0l-0.890625 0.015625q0 -2.140625 0.5625 -3.84375q0.5625 -1.703125 1.6875 -2.703125q1.125 -1.0 2.8125 -1.0q0.328125 0 0.734375 0.0625q0.40625 0.0625 0.609375 0.140625l-0.03125 3.671875z" fill-rule="nonzero"/><path fill="#000000" fill-opacity="0.0" d="m676.0105 240.91339l184.28345 0l0 58.173218l-184.28345 0z" fill-rule="evenodd"/><path fill="#fffbdb" d="m714.5663 281.52l0.03125 -3.234375l4.8125 0q2.09375 0 3.5 -0.90625q1.40625 -0.90625 2.125 -2.59375q0.71875 -1.703125 0.71875 -4.0625l0 -1.1875q0 -2.421875 -0.71875 -4.09375q-0.703125 -1.671875 -2.09375 -2.546875q-1.390625 -0.875 -3.390625 -0.875l-5.078125 0l0 -3.25l5.078125 0q3.046875 0 5.34375 1.34375q2.3125 1.34375 3.609375 3.765625q1.296875 2.421875 1.296875 5.6875l0 1.15625q0 3.28125 -1.296875 5.703125q-1.296875 2.421875 -3.640625 3.765625q-2.328125 1.328125 -5.453125 1.328125l-4.84375 0zm2.25 0l-4.03125 0l0 -22.75l4.03125 0l0 22.75zm23.984375 0.3125q-2.515625 0 -4.34375 -1.078125q-1.828125 -1.09375 -2.8125 -2.9375q-0.984375 -1.859375 -0.984375 -4.15625l0 -0.640625q0 -2.640625 1.0 -4.59375q1.0 -1.96875 2.734375 -3.046875q1.75 -1.078125 3.953125 -1.078125q2.4375 0 4.046875 1.0625q1.609375 1.046875 2.40625 2.921875q0.796875 1.859375 0.796875 4.3125l0 1.671875l-13.078125 0l0 -2.796875l9.25 0l0 -0.296875q-0.03125 -0.984375 -0.375 -1.84375q-0.34375 -0.859375 -1.09375 -1.390625q-0.734375 -0.53125 -1.96875 -0.53125q-1.234375 0 -2.078125 0.703125q-0.84375 0.6875 -1.28125 1.953125q-0.4375 1.25 -0.4375 2.953125l0 0.640625q0 1.4375 0.53125 2.578125q0.53125 1.140625 1.546875 1.8125q1.015625 0.65625 2.421875 0.65625q1.359375 0 2.40625 -0.53125q1.0625 -0.53125 1.828125 -1.53125l2.03125 2.03125q-0.796875 1.203125 -2.40625 2.1875q-1.59375 0.96875 -4.09375 0.96875zm19.046875 -17.21875l4.015625 0l-5.84375 16.90625l-2.5 0l0.25 -3.0625l4.078125 -13.84375zm-2.984375 13.890625l0.1875 3.015625l-2.484375 0l-5.890625 -16.90625l4.03125 0l4.15625 13.890625zm16.796875 3.328125q-2.515625 0 -4.34375 -1.078125q-1.828125 -1.09375 -2.8125 -2.9375q-0.984375 -1.859375 -0.984375 -4.15625l0 -0.640625q0 -2.640625 1.0 -4.59375q1.0 -1.96875 2.734375 -3.046875q1.75 -1.078125 3.953125 -1.078125q2.4375 0 4.046875 1.0625q1.609375 1.046875 2.40625 2.921875q0.796875 1.859375 0.796875 4.3125l0 1.671875l-13.078125 0l0 -2.796875l9.25 0l0 -0.296875q-0.03125 -0.984375 -0.375 -1.84375q-0.34375 -0.859375 -1.09375 -1.390625q-0.734375 -0.53125 -1.96875 -0.53125q-1.234375 0 -2.078125 0.703125q-0.84375 0.6875 -1.28125 1.953125q-0.4375 1.25 -0.4375 2.953125l0 0.640625q0 1.4375 0.53125 2.578125q0.53125 1.140625 1.546875 1.8125q1.015625 0.65625 2.421875 0.65625q1.359375 0 2.40625 -0.53125q1.0625 -0.53125 1.828125 -1.53125l2.03125 2.03125q-0.796875 1.203125 -2.40625 2.1875q-1.59375 0.96875 -4.09375 0.96875zm13.8125 -0.3125l-3.875 0l0 -24.0l3.875 0l0 24.0zm3.359375 -8.609375q0 -2.46875 0.9375 -4.40625q0.9375 -1.9375 2.6875 -3.0625q1.765625 -1.140625 4.234375 -1.140625q2.5 0 4.265625 1.140625q1.765625 1.125 2.6875 3.0625q0.9375 1.9375 0.9375 4.40625l0 0.328125q0 2.453125 -0.9375 4.40625q-0.921875 1.9375 -2.6875 3.0625q-1.75 1.125 -4.234375 1.125q-2.484375 0 -4.25 -1.125q-1.765625 -1.125 -2.703125 -3.0625q-0.9375 -1.953125 -0.9375 -4.40625l0 -0.328125zm3.875 0.328125q0 1.5 0.421875 2.75q0.421875 1.234375 1.296875 1.984375q0.890625 0.75 2.296875 0.75q1.390625 0 2.265625 -0.75q0.890625 -0.75 1.296875 -1.984375q0.421875 -1.25 0.421875 -2.75l0 -0.328125q0 -1.484375 -0.421875 -2.734375q-0.40625 -1.25 -1.296875 -2.0q-0.890625 -0.765625 -2.296875 -0.765625q-1.390625 0 -2.28125 0.765625q-0.875 0.75 -1.296875 2.0q-0.40625 1.25 -0.40625 2.734375l0 0.328125zm18.890625 14.78125l-3.875 0l0 -23.40625l3.578125 0l0.296875 3.25l0 20.15625zm10.96875 -14.796875q0 2.46875 -0.765625 4.421875q-0.75 1.9375 -2.21875 3.0625q-1.453125 1.125 -3.5625 1.125q-2.125 0 -3.53125 -1.03125q-1.390625 -1.046875 -2.171875 -2.875q-0.78125 -1.828125 -1.078125 -4.171875l0 -1.109375q0.296875 -2.5 1.078125 -4.359375q0.78125 -1.875 2.171875 -2.921875q1.390625 -1.0625 3.484375 -1.0625q2.140625 0 3.609375 1.078125q1.46875 1.078125 2.21875 3.015625q0.765625 1.9375 0.765625 4.5l0 0.328125zm-3.875 -0.328125q0 -1.515625 -0.390625 -2.75q-0.375 -1.234375 -1.21875 -1.953125q-0.828125 -0.71875 -2.171875 -0.71875q-0.96875 0 -1.671875 0.328125q-0.703125 0.3125 -1.1875 0.890625q-0.46875 0.578125 -0.734375 1.375q-0.265625 0.78125 -0.375 1.71875l0 2.828125q0.1875 1.125 0.625 2.0625q0.4375 0.9375 1.25 1.5q0.828125 0.546875 2.125 0.546875q1.34375 0 2.171875 -0.75q0.828125 -0.765625 1.203125 -2.0q0.375 -1.25 0.375 -2.75l0 -0.328125z" fill-rule="nonzero"/><path fill="#000000" fill-opacity="0.0" d="m401.05643 240.91339l184.28348 0l0 58.173218l-184.28348 0z" fill-rule="evenodd"/><path fill="#fffbdb" d="m450.96378 281.52l0.03125 -3.234375l4.8125 0q2.09375 0 3.5 -0.90625q1.40625 -0.90625 2.125 -2.59375q0.71875 -1.703125 0.71875 -4.0625l0 -1.1875q0 -2.421875 -0.71875 -4.09375q-0.703125 -1.671875 -2.09375 -2.546875q-1.390625 -0.875 -3.390625 -0.875l-5.078125 0l0 -3.25l5.078125 0q3.046875 0 5.34375 1.34375q2.3125 1.34375 3.609375 3.765625q1.296875 2.421875 1.296875 5.6875l0 1.15625q0 3.28125 -1.296875 5.703125q-1.296875 2.421875 -3.640625 3.765625q-2.328125 1.328125 -5.453125 1.328125l-4.84375 0zm2.25 0l-4.03125 0l0 -22.75l4.03125 0l0 22.75zm23.984375 0.3125q-2.515625 0 -4.34375 -1.078125q-1.828125 -1.09375 -2.8125 -2.9375q-0.984375 -1.859375 -0.984375 -4.15625l0 -0.640625q0 -2.640625 1.0 -4.59375q1.0 -1.96875 2.734375 -3.046875q1.75 -1.078125 3.953125 -1.078125q2.4375 0 4.046875 1.0625q1.609375 1.046875 2.40625 2.921875q0.796875 1.859375 0.796875 4.3125l0 1.671875l-13.078125 0l0 -2.796875l9.25 0l0 -0.296875q-0.03125 -0.984375 -0.375 -1.84375q-0.34375 -0.859375 -1.09375 -1.390625q-0.734375 -0.53125 -1.96875 -0.53125q-1.234375 0 -2.078125 0.703125q-0.84375 0.6875 -1.28125 1.953125q-0.4375 1.25 -0.4375 2.953125l0 0.640625q0 1.4375 0.53125 2.578125q0.53125 1.140625 1.546875 1.8125q1.015625 0.65625 2.421875 0.65625q1.359375 0 2.40625 -0.53125q1.0625 -0.53125 1.828125 -1.53125l2.03125 2.03125q-0.796875 1.203125 -2.40625 2.1875q-1.59375 0.96875 -4.09375 0.96875zm11.0 -0.3125l0 -18.515625q0 -2.8125 1.59375 -4.3125q1.59375 -1.5 4.359375 -1.5q0.5625 0 1.109375 0.078125q0.546875 0.078125 1.0625 0.203125l-0.09375 3.03125q-0.296875 -0.0625 -0.671875 -0.09375q-0.375 -0.03125 -0.78125 -0.03125q-1.28125 0 -2.0 0.6875q-0.703125 0.671875 -0.703125 1.9375l0 18.515625l-3.875 0zm7.328125 -14.046875l-9.90625 0l0 -2.859375l9.90625 0l0 2.859375zm6.8125 14.046875l-3.875 0l0 -16.90625l3.875 0l0 16.90625zm-4.125 -21.328125q0 -0.890625 0.578125 -1.46875q0.578125 -0.59375 1.609375 -0.59375q1.03125 0 1.625 0.59375q0.59375 0.578125 0.59375 1.46875q0 0.875 -0.59375 1.46875q-0.59375 0.578125 -1.625 0.578125q-1.03125 0 -1.609375 -0.578125q-0.578125 -0.59375 -0.578125 -1.46875zm12.03125 21.328125l-3.875 0l0 -16.90625l3.640625 0l0.234375 3.609375l0 13.296875zm-1.9375 -9.046875q0.015625 -2.453125 0.859375 -4.28125q0.84375 -1.84375 2.359375 -2.859375q1.5156555 -1.03125 3.5312805 -1.03125q1.640625 0 2.84375 0.625q1.203125 0.609375 1.875 2.0q0.671875 1.375 0.671875 3.703125l0 10.890625l-3.890625 0l0 -10.921875q0 -1.171875 -0.34375 -1.859375q-0.328125 -0.6875 -1.0 -0.96875q-0.65625 -0.296875 -1.609375 -0.296875q-0.96875 0 -1.7187805 0.390625q-0.734375 0.375 -1.265625 1.0625q-0.515625 0.6875 -0.796875 1.59375q-0.265625 0.90625 -0.265625 1.9375l-1.25 0.015625zm23.421906 9.359375q-2.515625 0 -4.34375 -1.078125q-1.828125 -1.09375 -2.8125 -2.9375q-0.984375 -1.859375 -0.984375 -4.15625l0 -0.640625q0 -2.640625 1.0 -4.59375q1.0 -1.96875 2.734375 -3.046875q1.75 -1.078125 3.953125 -1.078125q2.4375 0 4.046875 1.0625q1.609375 1.046875 2.40625 2.921875q0.796875 1.859375 0.796875 4.3125l0 1.671875l-13.078125 0l0 -2.796875l9.25 0l0 -0.296875q-0.03125 -0.984375 -0.375 -1.84375q-0.34375 -0.859375 -1.09375 -1.390625q-0.734375 -0.53125 -1.96875 -0.53125q-1.234375 0 -2.078125 0.703125q-0.84375 0.6875 -1.28125 1.953125q-0.4375 1.25 -0.4375 2.953125l0 0.640625q0 1.4375 0.53125 2.578125q0.53125 1.140625 1.546875 1.8125q1.015625 0.65625 2.421875 0.65625q1.359375 0 2.40625 -0.53125q1.0625 -0.53125 1.828125 -1.53125l2.03125 2.03125q-0.796875 1.203125 -2.40625 2.1875q-1.59375 0.96875 -4.09375 0.96875z" fill-rule="nonzero"/><path fill="#000000" fill-opacity="0.0" d="m270.59842 58.139107l418.80313 0l0 58.173225l-418.80313 0z" fill-rule="evenodd"/><path fill="#353744" d="m412.14844 86.95286q0 3.5 -1.234375 6.015625q-1.234375 2.5 -3.421875 3.859375q-2.1875 1.34375 -5.0625 1.34375q-2.875 0 -5.09375 -1.34375q-2.203125 -1.359375 -3.453125 -3.859375q-1.25 -2.515625 -1.25 -6.015625l0 -0.921875q0 -3.5 1.234375 -6.0q1.25 -2.515625 3.453125 -3.875q2.203125 -1.359375 5.078125 -1.359375q2.875 0 5.0625 1.359375q2.203125 1.359375 3.4375 3.875q1.25 2.5 1.25 6.0l0 0.921875zm-4.953125 -0.953125q0 -2.34375 -0.5625 -3.9375q-0.5625 -1.59375 -1.640625 -2.40625q-1.078125 -0.8125 -2.59375 -0.8125q-1.546875 0 -2.609375 0.8125q-1.0625 0.8125 -1.625 2.40625q-0.546875 1.59375 -0.546875 3.9375l0 0.953125q0 2.328125 0.5625 3.9375q0.5625 1.59375 1.625 2.421875q1.078125 0.828125 2.625 0.828125q1.515625 0 2.578125 -0.828125q1.078125 -0.828125 1.625 -2.421875q0.5625 -1.609375 0.5625 -3.9375l0 -0.953125zm17.875 -5.046875l4.71875 0l0 16.90625l-4.421875 0l-0.296875 -4.078125l0 -12.828125zm1.890625 9.296875q0 2.28125 -0.703125 4.078125q-0.6875 1.78125 -2.09375 2.8125q-1.390625 1.03125 -3.515625 1.03125q-2.5 0 -4.0625 -1.453125q-1.546875 -1.46875 -1.546875 -4.828125l0 -10.9375l4.71875 0l0 10.96875q0 0.859375 0.28125 1.40625q0.296875 0.53125 0.8125 0.78125q0.53125 0.234375 1.203125 0.234375q1.359375 0 2.125 -0.53125q0.78125 -0.53125 1.09375 -1.453125q0.328125 -0.921875 0.328125 -2.078125l1.359375 -0.03125zm10.859375 7.609375l-4.71875 0l0 -16.90625l4.4375 0l0.28125 3.890625l0 13.015625zm4.9375 -12.46875q-0.34375 -0.046875 -0.8125 -0.078125q-0.46875 -0.046875 -0.84375 -0.046875q-1.234375 0 -2.03125 0.390625q-0.796875 0.375 -1.1875 1.125q-0.390625 0.75 -0.421875 1.859375l-0.921875 -0.40625q0 -2.203125 0.5625 -3.921875q0.5625 -1.71875 1.65625 -2.6875q1.09375 -0.984375 2.65625 -0.984375q0.359375 0 0.75 0.046875q0.40625 0.046875 0.65625 0.15625l-0.0625 4.546875zm13.609375 4.546875l0 -3.953125l5.71875 0q1.296875 0 2.09375 -0.421875q0.8125 -0.421875 1.1875 -1.15625q0.375 -0.734375 0.375 -1.6875q0 -0.953125 -0.375 -1.78125q-0.375 -0.84375 -1.1875 -1.34375q-0.796875 -0.515625 -2.09375 -0.515625l-4.03125 0l0 18.78125l-4.921875 0l0 -22.75l8.953125 0q2.703125 0 4.640625 0.984375q1.9375 0.984375 2.96875 2.703125q1.03125 1.703125 1.03125 3.890625q0 2.21875 -1.03125 3.84375q-1.03125 1.625 -2.96875 2.515625q-1.9375 0.890625 -4.640625 0.890625l-5.71875 0zm21.9375 7.921875l-4.71875 0l0 -16.90625l4.4375 0l0.28125 3.890625l0 13.015625zm4.9375 -12.46875q-0.34375 -0.046875 -0.8125 -0.078125q-0.46875 -0.046875 -0.84375 -0.046875q-1.234375 0 -2.03125 0.390625q-0.796875 0.375 -1.1875 1.125q-0.390625 0.75 -0.421875 1.859375l-0.921875 -0.40625q0 -2.203125 0.5625 -3.921875q0.5625 -1.71875 1.65625 -2.6875q1.09375 -0.984375 2.65625 -0.984375q0.359375 0 0.75 0.046875q0.40625 0.046875 0.65625 0.15625l-0.0625 4.546875zm1.3125 3.859375q0 -2.46875 0.9375 -4.40625q0.9375 -1.953125 2.734375 -3.078125q1.796875 -1.125 4.359375 -1.125q2.59375 0 4.390625 1.125q1.8125 1.125 2.734375 3.078125q0.9375 1.9375 0.9375 4.40625l0 0.328125q0 2.453125 -0.9375 4.40625q-0.921875 1.953125 -2.71875 3.078125q-1.796875 1.109375 -4.375 1.109375q-2.578125 0 -4.390625 -1.109375q-1.796875 -1.125 -2.734375 -3.078125q-0.9375 -1.953125 -0.9375 -4.40625l0 -0.328125zm4.734375 0.328125q0 1.328125 0.3125 2.421875q0.328125 1.09375 1.046875 1.734375q0.734375 0.640625 1.96875 0.640625q1.21875 0 1.9375 -0.640625q0.734375 -0.640625 1.046875 -1.734375q0.328125 -1.09375 0.328125 -2.421875l0 -0.328125q0 -1.296875 -0.328125 -2.390625q-0.3125 -1.109375 -1.046875 -1.765625q-0.71875 -0.65625 -1.96875 -0.65625q-1.21875 0 -1.953125 0.65625q-0.71875 0.65625 -1.03125 1.765625q-0.3125 1.09375 -0.3125 2.390625l0 0.328125zm21.125 4.796875q0.796875 0 1.40625 -0.296875q0.609375 -0.296875 0.9375 -0.84375q0.34375 -0.546875 0.359375 -1.296875l4.4375 0q-0.015625 1.828125 -0.953125 3.234375q-0.9375 1.40625 -2.53125 2.203125q-1.59375 0.796875 -3.578125 0.796875q-2.625 0 -4.375 -1.140625q-1.734375 -1.140625 -2.609375 -3.078125q-0.859375 -1.9375 -0.859375 -4.328125l0 -0.421875q0 -2.40625 0.859375 -4.34375q0.875 -1.9375 2.609375 -3.078125q1.75 -1.140625 4.359375 -1.140625q2.09375 0 3.671875 0.8125q1.59375 0.796875 2.484375 2.296875q0.90625 1.484375 0.921875 3.5625l-4.4375 0q-0.015625 -0.796875 -0.328125 -1.4375q-0.296875 -0.65625 -0.90625 -1.046875q-0.609375 -0.390625 -1.5 -0.390625q-1.25 0 -1.90625 0.671875q-0.640625 0.671875 -0.875 1.765625q-0.234375 1.078125 -0.234375 2.328125l0 0.421875q0 1.265625 0.21875 2.359375q0.234375 1.078125 0.890625 1.734375q0.671875 0.65625 1.9375 0.65625zm17.53125 3.796875q-2.671875 0 -4.578125 -1.109375q-1.890625 -1.109375 -2.90625 -2.96875q-1.0 -1.859375 -1.0 -4.109375l0 -0.609375q0 -2.53125 0.953125 -4.5q0.96875 -1.984375 2.75 -3.109375q1.78125 -1.125 4.25 -1.125q2.453125 0 4.125 1.03125q1.671875 1.03125 2.53125 2.90625q0.859375 1.859375 0.859375 4.375l0 2.0l-13.484375 0l0 -3.171875l8.84375 0l0 -0.375q0 -0.875 -0.3125 -1.546875q-0.3125 -0.671875 -0.953125 -1.046875q-0.625 -0.375 -1.640625 -0.375q-1.15625 0 -1.859375 0.65625q-0.703125 0.65625 -1.03125 1.765625q-0.3125 1.109375 -0.3125 2.515625l0 0.609375q0 1.296875 0.484375 2.28125q0.484375 0.984375 1.390625 1.546875q0.90625 0.546875 2.1875 0.546875q1.203125 0 2.25 -0.4375q1.046875 -0.453125 1.78125 -1.40625l2.28125 2.609375q-0.796875 1.140625 -2.46875 2.09375q-1.65625 0.953125 -4.140625 0.953125zm18.515625 -5.03125q0 -0.46875 -0.28125 -0.8125q-0.265625 -0.34375 -1.0 -0.640625q-0.734375 -0.296875 -2.125 -0.59375q-1.703125 -0.375 -3.078125 -1.015625q-1.359375 -0.640625 -2.140625 -1.65625q-0.78125 -1.03125 -0.78125 -2.484375q0 -1.421875 0.8125 -2.625q0.8125 -1.203125 2.328125 -1.9375q1.53125 -0.734375 3.65625 -0.734375q2.21875 0 3.828125 0.703125q1.609375 0.703125 2.46875 1.9375q0.859375 1.234375 0.859375 2.828125l-4.71875 0q0 -0.953125 -0.59375 -1.546875q-0.578125 -0.609375 -1.859375 -0.609375q-0.6875 0 -1.203125 0.234375q-0.515625 0.234375 -0.796875 0.625q-0.265625 0.375 -0.265625 0.890625q0 0.46875 0.296875 0.828125q0.296875 0.359375 0.96875 0.625q0.671875 0.265625 1.796875 0.46875q1.796875 0.34375 3.25 0.953125q1.453125 0.59375 2.3125 1.640625q0.859375 1.03125 0.859375 2.75q0 1.5 -0.890625 2.6875q-0.875 1.171875 -2.5 1.84375q-1.609375 0.671875 -3.796875 0.671875q-2.390625 0 -4.03125 -0.859375q-1.640625 -0.859375 -2.484375 -2.171875q-0.84375 -1.328125 -0.84375 -2.703125l4.46875 0q0.046875 0.84375 0.453125 1.375q0.421875 0.53125 1.078125 0.78125q0.671875 0.25 1.46875 0.25q0.8125 0 1.359375 -0.203125q0.5625 -0.21875 0.84375 -0.59375q0.28125 -0.390625 0.28125 -0.90625zm16.46875 0q0 -0.46875 -0.28125 -0.8125q-0.265625 -0.34375 -1.0 -0.640625q-0.734375 -0.296875 -2.125 -0.59375q-1.703125 -0.375 -3.078125 -1.015625q-1.359375 -0.640625 -2.140625 -1.65625q-0.78125 -1.03125 -0.78125 -2.484375q0 -1.421875 0.8125 -2.625q0.8125 -1.203125 2.328125 -1.9375q1.53125 -0.734375 3.65625 -0.734375q2.21875 0 3.828125 0.703125q1.609375 0.703125 2.46875 1.9375q0.859375 1.234375 0.859375 2.828125l-4.71875 0q0 -0.953125 -0.59375 -1.546875q-0.578125 -0.609375 -1.859375 -0.609375q-0.6875 0 -1.203125 0.234375q-0.515625 0.234375 -0.796875 0.625q-0.265625 0.375 -0.265625 0.890625q0 0.46875 0.296875 0.828125q0.296875 0.359375 0.96875 0.625q0.671875 0.265625 1.796875 0.46875q1.796875 0.34375 3.25 0.953125q1.453125 0.59375 2.3125 1.640625q0.859375 1.03125 0.859375 2.75q0 1.5 -0.890625 2.6875q-0.875 1.171875 -2.5 1.84375q-1.609375 0.671875 -3.796875 0.671875q-2.390625 0 -4.03125 -0.859375q-1.640625 -0.859375 -2.484375 -2.171875q-0.84375 -1.328125 -0.84375 -2.703125l4.46875 0q0.046875 0.84375 0.453125 1.375q0.421875 0.53125 1.078125 0.78125q0.671875 0.25 1.46875 0.25q0.8125 0 1.359375 -0.203125q0.5625 -0.21875 0.84375 -0.59375q0.28125 -0.390625 0.28125 -0.90625z" fill-rule="nonzero"/></g></svg>